<svg xmlns="http://www.w3.org/2000/svg" width="720" height="540" viewBox="0 0 720 540">
  <defs>
    <style>text { font-family: 'Space Grotesk', -apple-system, 'Helvetica Neue', sans-serif; }</style>
    <filter id="glow-red"><feGaussianBlur stdDeviation="3" result="blur"/><feMerge><feMergeNode in="blur"/><feMergeNode in="SourceGraphic"/></feMerge></filter>
  </defs>

  <rect width="720" height="540" fill="#0d0e11"/>
  <pattern id="grid" width="40" height="40" patternUnits="userSpaceOnUse">
    <path d="M 40 0 L 0 0 0 40" fill="none" stroke="rgba(255,255,255,0.02)" stroke-width="0.5"/>
  </pattern>
  <rect width="720" height="540" fill="url(#grid)"/>

  <!-- Window chrome -->
  <rect x="20" y="20" width="680" height="480" rx="10" fill="#161b22" stroke="rgba(255,255,255,0.07)" stroke-width="1"/>
  <rect x="20" y="20" width="680" height="36" rx="10" fill="#1e2228"/>
  <rect x="20" y="44" width="680" height="12" fill="#1e2228"/>
  <circle cx="44" cy="38" r="6" fill="#ff5f57"/>
  <circle cx="62" cy="38" r="6" fill="#ffbd2e"/>
  <circle cx="80" cy="38" r="6" fill="#27c93f"/>
  <text x="360" y="44" font-size="12" fill="rgba(255,255,255,0.5)" text-anchor="middle">Finder — Documentos</text>

  <!-- Sidebar -->
  <rect x="20" y="56" width="140" height="444" fill="#13171d"/>
  <rect x="157" y="56" width="1" height="444" fill="rgba(255,255,255,0.05)"/>
  <text x="36" y="84" font-size="11" fill="rgba(255,255,255,0.25)" font-weight="600">FAVORITOS</text>

  <!-- Sidebar items with SVG icons instead of emoji -->
  <!-- Folder icon -->
  <g transform="translate(36,92)">
    <path d="M1 3h5l2 2h7a1 1 0 011 1v7a1 1 0 01-1 1H1a1 1 0 01-1-1V4a1 1 0 011-1z" fill="none" stroke="rgba(255,255,255,0.4)" stroke-width="1.2"/>
  </g>
  <text x="52" y="103" font-size="12" fill="rgba(255,255,255,0.5)">Recentes</text>

  <!-- Doc icon -->
  <g transform="translate(36,112)">
    <path d="M2 0h8l4 4v12H2V0z" fill="none" stroke="rgba(255,255,255,0.35)" stroke-width="1.2"/>
    <path d="M10 0v4h4" fill="none" stroke="rgba(255,255,255,0.35)" stroke-width="1.2"/>
  </g>
  <text x="52" y="123" font-size="12" fill="rgba(255,255,255,0.5)">Documentos</text>

  <!-- Active folder -->
  <g transform="translate(36,132)">
    <path d="M1 3h5l2 2h7a1 1 0 011 1v7a1 1 0 01-1 1H1a1 1 0 01-1-1V4a1 1 0 011-1z" fill="rgba(255,255,255,0.12)" stroke="rgba(255,255,255,0.7)" stroke-width="1.2"/>
  </g>
  <text x="52" y="143" font-size="12" fill="rgba(255,255,255,0.85)" font-weight="600">Desktop</text>

  <!-- Cloud icon -->
  <g transform="translate(36,152)">
    <path d="M12 13H3a3 3 0 01-.5-5.95A5 5 0 1113 9.1 3 3 0 0112 13z" fill="none" stroke="rgba(255,255,255,0.35)" stroke-width="1.2"/>
  </g>
  <text x="52" y="163" font-size="12" fill="rgba(255,255,255,0.5)">Drive</text>

  <!-- Download icon -->
  <g transform="translate(36,172)">
    <path d="M7 2v8M4 7l3 3 3-3M2 13h10" fill="none" stroke="rgba(255,255,255,0.35)" stroke-width="1.2" stroke-linecap="round"/>
  </g>
  <text x="52" y="183" font-size="12" fill="rgba(255,255,255,0.5)">Downloads</text>

  <!-- Main area header -->
  <rect x="158" y="56" width="542" height="40" fill="#1a1f26"/>
  <text x="175" y="82" font-size="11" fill="rgba(255,255,255,0.35)">Desktop  /  Clientes  /  Planilhas</text>

  <!-- Files grid Row 1 — inline SVG file icons -->
  <g transform="translate(175, 115)">
    <!-- File 1: xlsx (chart icon) -->
    <rect x="0" y="0" width="88" height="80" rx="6" fill="rgba(255,255,255,0.03)" stroke="rgba(255,255,255,0.06)" stroke-width="1"/>
    <g transform="translate(28,8)">
      <rect x="0" y="0" width="22" height="18" rx="2" fill="none" stroke="rgba(255,200,100,0.5)" stroke-width="1.2"/>
      <rect x="3" y="10" width="3" height="6" fill="rgba(255,200,100,0.6)"/>
      <rect x="8" y="7" width="3" height="9" fill="rgba(255,200,100,0.6)"/>
      <rect x="13" y="4" width="3" height="12" fill="rgba(255,200,100,0.8)"/>
      <rect x="18" y="8" width="3" height="8" fill="rgba(255,200,100,0.6)"/>
    </g>
    <text x="44" y="50" font-size="8.5" fill="rgba(255,200,100,0.8)" text-anchor="middle">clientes_</text>
    <text x="44" y="62" font-size="8.5" fill="rgba(255,200,100,0.8)" text-anchor="middle">FINAL.xlsx</text>
    <text x="44" y="73" font-size="7.5" fill="rgba(255,255,255,0.2)" text-anchor="middle">14/03/24</text>

    <!-- File 2: xlsx -->
    <rect x="100" y="0" width="88" height="80" rx="6" fill="rgba(255,60,60,0.06)" stroke="rgba(255,60,60,0.15)" stroke-width="1"/>
    <g transform="translate(128,8)">
      <rect x="0" y="0" width="22" height="18" rx="2" fill="none" stroke="rgba(255,130,130,0.5)" stroke-width="1.2"/>
      <rect x="3" y="10" width="3" height="6" fill="rgba(255,130,130,0.6)"/>
      <rect x="8" y="6" width="3" height="10" fill="rgba(255,130,130,0.6)"/>
      <rect x="13" y="3" width="3" height="13" fill="rgba(255,130,130,0.9)"/>
      <rect x="18" y="7" width="3" height="9" fill="rgba(255,130,130,0.6)"/>
    </g>
    <text x="144" y="50" font-size="8.5" fill="rgba(255,130,130,0.9)" text-anchor="middle">clientes_</text>
    <text x="144" y="62" font-size="8.5" fill="rgba(255,130,130,0.9)" text-anchor="middle">FINAL2.xlsx</text>
    <text x="144" y="73" font-size="7.5" fill="rgba(255,255,255,0.2)" text-anchor="middle">22/03/24</text>

    <!-- File 3: xlsx (red highlight) -->
    <rect x="200" y="0" width="88" height="80" rx="6" fill="rgba(255,60,60,0.1)" stroke="rgba(255,60,60,0.25)" stroke-width="1.5"/>
    <g transform="translate(228,8)">
      <rect x="0" y="0" width="22" height="18" rx="2" fill="rgba(255,80,80,0.15)" stroke="rgba(255,80,80,0.6)" stroke-width="1.2"/>
      <rect x="3" y="9" width="3" height="7" fill="rgba(255,100,100,0.7)"/>
      <rect x="8" y="5" width="3" height="11" fill="rgba(255,100,100,0.7)"/>
      <rect x="13" y="2" width="3" height="14" fill="rgba(255,100,100,0.9)"/>
      <rect x="18" y="6" width="3" height="10" fill="rgba(255,100,100,0.7)"/>
    </g>
    <text x="244" y="50" font-size="7.5" fill="rgba(255,100,100,0.9)" text-anchor="middle">USAR_ESSA_</text>
    <text x="244" y="62" font-size="7.5" fill="rgba(255,100,100,0.9)" text-anchor="middle">v3_CERTA.xlsx</text>
    <text x="244" y="73" font-size="7.5" fill="rgba(255,255,255,0.2)" text-anchor="middle">05/04/24</text>

    <!-- File 4: folder -->
    <rect x="300" y="0" width="88" height="80" rx="6" fill="rgba(255,255,255,0.03)" stroke="rgba(255,255,255,0.06)" stroke-width="1"/>
    <g transform="translate(326,8)">
      <path d="M2 5h7l2 2h9a1 1 0 011 1v8a1 1 0 01-1 1H2a1 1 0 01-1-1V6a1 1 0 011-1z" fill="rgba(255,255,255,0.06)" stroke="rgba(255,255,255,0.3)" stroke-width="1.2"/>
    </g>
    <text x="344" y="50" font-size="8.5" fill="rgba(255,255,255,0.4)" text-anchor="middle">backup</text>
    <text x="344" y="62" font-size="8.5" fill="rgba(255,255,255,0.4)" text-anchor="middle">antigo?</text>
    <text x="344" y="73" font-size="7.5" fill="rgba(255,255,255,0.2)" text-anchor="middle">2022</text>

    <!-- File 5: txt/note -->
    <rect x="400" y="0" width="88" height="80" rx="6" fill="rgba(255,255,255,0.03)" stroke="rgba(255,255,255,0.06)" stroke-width="1"/>
    <g transform="translate(426,6)">
      <path d="M2 0h10l4 4v14H2V0z" fill="none" stroke="rgba(255,255,255,0.3)" stroke-width="1.2"/>
      <path d="M12 0v4h4" fill="none" stroke="rgba(255,255,255,0.3)" stroke-width="1.2"/>
      <line x1="4" y1="9" x2="14" y2="9" stroke="rgba(255,255,255,0.2)" stroke-width="1"/>
      <line x1="4" y1="12" x2="12" y2="12" stroke="rgba(255,255,255,0.2)" stroke-width="1"/>
    </g>
    <text x="444" y="50" font-size="8.5" fill="rgba(255,255,255,0.4)" text-anchor="middle">notas_</text>
    <text x="444" y="62" font-size="8.5" fill="rgba(255,255,255,0.4)" text-anchor="middle">reuniao.txt</text>
    <text x="444" y="73" font-size="7.5" fill="rgba(255,255,255,0.2)" text-anchor="middle">sem data</text>
  </g>

  <!-- Row 2 -->
  <g transform="translate(175, 210)">
    <!-- xlsx -->
    <rect x="0" y="0" width="88" height="80" rx="6" fill="rgba(255,255,255,0.03)" stroke="rgba(255,255,255,0.06)" stroke-width="1"/>
    <g transform="translate(28,8)">
      <rect x="0" y="0" width="22" height="18" rx="2" fill="none" stroke="rgba(255,255,255,0.25)" stroke-width="1.2"/>
      <rect x="3" y="8" width="3" height="8" fill="rgba(255,255,255,0.2)"/>
      <rect x="8" y="5" width="3" height="11" fill="rgba(255,255,255,0.2)"/>
      <rect x="13" y="10" width="3" height="6" fill="rgba(255,255,255,0.2)"/>
      <rect x="18" y="7" width="3" height="9" fill="rgba(255,255,255,0.2)"/>
    </g>
    <text x="44" y="50" font-size="7.5" fill="rgba(255,255,255,0.4)" text-anchor="middle">propostas</text>
    <text x="44" y="62" font-size="7.5" fill="rgba(255,255,255,0.4)" text-anchor="middle">nao_enviar.xlsx</text>
    <text x="44" y="73" font-size="7.5" fill="rgba(255,255,255,0.2)" text-anchor="middle">?</text>

    <!-- doc -->
    <rect x="100" y="0" width="88" height="80" rx="6" fill="rgba(255,255,255,0.03)" stroke="rgba(255,255,255,0.06)" stroke-width="1"/>
    <g transform="translate(128,6)">
      <path d="M2 0h10l4 4v14H2V0z" fill="none" stroke="rgba(255,255,255,0.3)" stroke-width="1.2"/>
      <path d="M12 0v4h4" fill="none" stroke="rgba(255,255,255,0.3)" stroke-width="1.2"/>
      <line x1="4" y1="9" x2="14" y2="9" stroke="rgba(255,255,255,0.2)" stroke-width="1"/>
      <line x1="4" y1="12" x2="11" y2="12" stroke="rgba(255,255,255,0.2)" stroke-width="1"/>
    </g>
    <text x="144" y="50" font-size="8.5" fill="rgba(255,255,255,0.4)" text-anchor="middle">contrato_</text>
    <text x="144" y="62" font-size="8.5" fill="rgba(255,255,255,0.4)" text-anchor="middle">modelo (2).doc</text>
    <text x="144" y="73" font-size="7.5" fill="rgba(255,255,255,0.2)" text-anchor="middle">cópia</text>

    <!-- empty folder -->
    <rect x="200" y="0" width="88" height="80" rx="6" fill="rgba(255,255,255,0.03)" stroke="rgba(255,255,255,0.06)" stroke-width="1"/>
    <g transform="translate(226,8)">
      <path d="M2 5h7l2 2h9a1 1 0 011 1v8a1 1 0 01-1 1H2a1 1 0 01-1-1V6a1 1 0 011-1z" fill="rgba(255,255,255,0.03)" stroke="rgba(255,255,255,0.2)" stroke-width="1.2" stroke-dasharray="3 2"/>
    </g>
    <text x="244" y="50" font-size="8.5" fill="rgba(255,255,255,0.4)" text-anchor="middle">PASTA SEM</text>
    <text x="244" y="62" font-size="8.5" fill="rgba(255,255,255,0.4)" text-anchor="middle">NOME</text>
    <text x="244" y="73" font-size="7.5" fill="rgba(255,255,255,0.2)" text-anchor="middle">—</text>

    <!-- xlsx warning -->
    <rect x="300" y="0" width="88" height="80" rx="6" fill="rgba(255,200,50,0.06)" stroke="rgba(255,200,50,0.15)" stroke-width="1"/>
    <g transform="translate(328,8)">
      <rect x="0" y="0" width="22" height="18" rx="2" fill="rgba(255,200,50,0.1)" stroke="rgba(255,200,50,0.4)" stroke-width="1.2"/>
      <rect x="3" y="6" width="3" height="10" fill="rgba(255,200,50,0.6)"/>
      <rect x="8" y="4" width="3" height="12" fill="rgba(255,200,50,0.8)"/>
      <rect x="13" y="8" width="3" height="8" fill="rgba(255,200,50,0.6)"/>
      <rect x="18" y="5" width="3" height="11" fill="rgba(255,200,50,0.7)"/>
    </g>
    <text x="344" y="50" font-size="7.5" fill="rgba(255,200,100,0.7)" text-anchor="middle">financeiro_real</text>
    <text x="344" y="62" font-size="7.5" fill="rgba(255,200,100,0.7)" text-anchor="middle">_EDITAR_URGENTE</text>
    <text x="344" y="73" font-size="7.5" fill="rgba(255,255,255,0.2)" text-anchor="middle">nunca editado</text>

    <!-- trash -->
    <rect x="400" y="0" width="88" height="80" rx="6" fill="rgba(255,255,255,0.03)" stroke="rgba(255,255,255,0.06)" stroke-width="1"/>
    <g transform="translate(426,6)">
      <path d="M2 4h12M5 4V2h6v2M4 4l1 12h6l1-12" fill="none" stroke="rgba(255,255,255,0.25)" stroke-width="1.2" stroke-linecap="round" stroke-linejoin="round"/>
      <line x1="7" y1="8" x2="7" y2="13" stroke="rgba(255,255,255,0.2)" stroke-width="1"/>
      <line x1="9" y1="8" x2="9" y2="13" stroke="rgba(255,255,255,0.2)" stroke-width="1"/>
    </g>
    <text x="444" y="50" font-size="8.5" fill="rgba(255,255,255,0.25)" text-anchor="middle">Lixeira</text>
    <text x="444" y="62" font-size="8.5" fill="rgba(255,255,255,0.25)" text-anchor="middle">847 itens</text>
  </g>

  <!-- Alert bar -->
  <rect x="158" y="400" width="542" height="48" fill="rgba(255,50,50,0.06)"/>
  <rect x="158" y="400" width="542" height="1" fill="rgba(255,60,60,0.12)"/>
  <circle cx="190" cy="424" r="10" fill="rgba(255,60,60,0.15)" stroke="rgba(255,60,60,0.3)" stroke-width="1"/>
  <text x="190" y="429" font-size="12" fill="#ff6666" text-anchor="middle" font-weight="700">!</text>
  <text x="210" y="420" font-size="11" fill="rgba(255,100,100,0.8)" font-weight="600">3 arquivos com nome "FINAL" — qual é o correto?</text>
  <text x="210" y="436" font-size="10" fill="rgba(255,255,255,0.3)">Último acesso: 6 dias atrás · Sem backup em nuvem</text>

  <!-- Status bar bottom -->
  <rect x="20" y="468" width="680" height="32" rx="10" fill="#13171d"/>
  <rect x="20" y="468" width="680" height="16" fill="#13171d"/>
  <text x="40" y="488" font-size="10" fill="rgba(255,255,255,0.25)">23 itens — 847MB livres de 64GB</text>
  <!-- Warning icon instead of emoji -->
  <path d="M670 482l4-7 4 7H670z" fill="none" stroke="rgba(255,255,255,0.3)" stroke-width="1" stroke-linejoin="round"/>
  <text x="675" y="481" font-size="7" fill="rgba(255,255,255,0.4)" text-anchor="middle">!</text>
  <text x="685" y="488" font-size="10" fill="rgba(255,255,255,0.25)" text-anchor="end">Disco quase cheio</text>
</svg>
